<svg id="visual" viewBox="0 0 1079 662" width="1079" height="662" xmlns="http://www.w3.org/2000/svg" xmlns:xlink="http://www.w3.org/1999/xlink" version="1.1"><rect x="0" y="0" width="1079" height="662" fill="#000000"></rect><path d="M0 211L30 194.3C60 177.7 120 144.3 180 139C240 133.7 300 156.3 360 170.5C420 184.7 480 190.3 539.8 179.3C599.7 168.3 659.3 140.7 719.2 137.3C779 134 839 155 899 164.8C959 174.7 1019 173.3 1049 172.7L1079 172L1079 0L1049 0C1019 0 959 0 899 0C839 0 779 0 719.2 0C659.3 0 599.7 0 539.8 0C480 0 420 0 360 0C300 0 240 0 180 0C120 0 60 0 30 0L0 0Z" fill="#ca0101" stroke-linecap="round" stroke-linejoin="miter"></path></svg>